<svg xmlns="http://www.w3.org/2000/svg" width="40.978" height="40.978" viewBox="0 0 40.978 40.978"><defs><style>.a{fill:#064fec;}</style></defs><g transform="translate(7.37 1.925)"><g transform="translate(-7.37 18.563) rotate(-45)"><g transform="translate(0 0)"><path class="a" d="M14.482,0A14.447,14.447,0,0,0,3.671,4.861l.089.088,5.533,5.532.586.586a.518.518,0,0,1,0,.733L7.393,14.287a.518.518,0,0,1-.734,0l-.317-.318L1.157,8.787A14.446,14.446,0,0,0,0,14.271l3.459,3.457a.518.518,0,0,0,.326.149.548.548,0,0,0,.085-.069l2.487-2.486a.52.52,0,0,1,.735,0l.122.121,1.223,1.223,2.4,2.4a.518.518,0,0,1,0,.733L8.348,22.285a.519.519,0,0,1-.734,0L3.92,18.591a.52.52,0,0,0-.327-.148.5.5,0,0,0-.085.069l-2.132,2.13A14.486,14.486,0,1,0,14.482,0M10.524,4.532l2.527-2.526a.517.517,0,0,1,.734,0l2.526,2.525a.517.517,0,0,1,0,.733L13.785,7.791a.519.519,0,0,1-.735,0L10.524,5.265a.516.516,0,0,1,0-.732M20.773,16.45l-2.287,2.286a.52.52,0,0,1-.734,0l-6.99-6.987a.52.52,0,0,1,0-.733l2.287-2.286a.518.518,0,0,1,.734,0l6.99,6.987a.518.518,0,0,1,0,.733" transform="translate(0 0)"/></g></g><circle class="a" cx="2.832" cy="2.832" r="2.832" transform="translate(25.488 2.771)"/></g></svg>
